# xmcd
#
# Track frame offsets:
#	150
#	16383
#	28922
#	41221
#	56819
#	70919
#	86433
#	104919
#	117564
#	134863
#	151826
#	168332
#	181469
#	192439
#	211256
#	227117
#	242374
#	255984
#	271283
#	285898
#
# Disc length: 3982 seconds
#
# Revision: 1
# Processed by: cddbd v1.5.2PL0 Copyright (c) Steve Scherf et al.
# Submitted via: audiograbber 1.83.01
#
DISCID=250f8c14
DTITLE=Pharaoh Int´l Records - Gold Rusch Country
DYEAR=2000
DGENRE=Country
TTITLE0=Keep Away - Ruthanna Taitano
TTITLE1=Wild Roses - Kevin Stonerock
TTITLE2=Outlow Boogie - J. Max Mckee
TTITLE3=My Hearts With You - Barbara Morrison
TTITLE4=Her Innocence - Dain Carlton
TTITLE5=What Can I Do - Garry Johnson
TTITLE6=Lay Of The Land - Juli Maners
TTITLE7=One Step From Leaving - J. Thomas and His Rough Riders
TTITLE8=Somehow They Knew - Jerry Hughes
TTITLE9=Sierra Wind - Juli Maners
TTITLE10=Mobile Home Park - Bob Bernstein
TTITLE11=Without You - Kevin Stoneroc
TTITLE12=Tulsa City Two Step - J. Thomas and His Rough Riders
TTITLE13=Make Me A Beliver - Shannon Mock
TTITLE14=I Sold My Horse Today - Bob Bernstein
TTITLE15=Words Never Faled Me - Juli Maners
TTITLE16=Small Town Rock And Roll - Kevin Stonerock
TTITLE17=Same Old Same Old - Gail Bently
TTITLE18=You Remind Me Of My Wife - Bob Bernstein
TTITLE19=Moonshine - J. Thomas and His Rough Riders
EXTD=
EXTT0=
EXTT1=
EXTT2=
EXTT3=
EXTT4=
EXTT5=
EXTT6=
EXTT7=
EXTT8=
EXTT9=
EXTT10=
EXTT11=
EXTT12=
EXTT13=
EXTT14=
EXTT15=
EXTT16=
EXTT17=
EXTT18=
EXTT19=
PLAYORDER=
